<svg xmlns="http://www.w3.org/2000/svg" width="16.542" height="19.018" viewBox="0 0 16.542 19.018"><path class="a" fill="white" d="M15.351,13.767a.759.759,0,0,0-.208-.363L12.577,10.9a1.543,1.543,0,0,0-.254-.2l-1.191-.752L10.4,9.509l.736-.435,1.191-.751a1.5,1.5,0,0,0,.254-.2l2.566-2.507a.759.759,0,0,0,.208-.363L16.53.487A.393.393,0,0,0,16.149,0H.393A.392.392,0,0,0,.012.487L1.191,5.252a.759.759,0,0,0,.208.363L3.965,8.122a1.5,1.5,0,0,0,.254.2l1.191.751.736.435-.736.435L4.219,10.7a1.543,1.543,0,0,0-.254.2L1.4,13.4a.759.759,0,0,0-.208.363L.012,18.532a.392.392,0,0,0,.381.486H16.149a.392.392,0,0,0,.381-.486Z"/></svg>