<svg xmlns="http://www.w3.org/2000/svg" width="146.37" height="68.24" viewBox="0 0 146.37 68.24"><defs><style>.a{fill:#fff;}.b{fill:#231f20;}</style></defs><polygon class="a" points="9.28 63.52 0.66 12.22 4.71 6.53 39.63 0.66 45.32 4.71 53.94 56.02 49.89 61.71 14.97 67.58 9.28 63.52"/><path class="b" d="M39.48,1.32l5.27,3.75,8.53,50.8-3.75,5.27L15.12,66.92,9.85,63.16,1.32,12.37,5.07,7.1,39.48,1.32M39.78,0l-.51.09L4.86,5.87,4.35,6l-.3.43L2.18,9,.3,11.64l-.3.43.09.51L8.62,63.37l.09.51.42.3,1.5,1.07,3.77,2.69.42.3.51-.09,34.41-5.78.51-.09.3-.42,1.66-2.34,2.09-2.93.3-.42-.08-.51L46,4.86l-.09-.51-.42-.3L43,2.29,40.2.3,39.78,0Z"/><path class="a" d="M63.89,62H29l-4.57-4.57V5.87L29,1.3H63.89l4.57,4.57V57.38Z"/><path d="M68.46,57.38,63.89,62H29l-4.57-4.57V5.87L29,1.3H63.89l4.57,4.57v8h1.25V5.35L69.35,5,66.71,2.35,64.77.41,64.41.05H28.48l-.36.36-1,1L23.54,5l-.36.36V57.89l.36.37,4.27,4.27.31.31.36.36H64.41l.36-.36,2.29-2.29,2.29-2.29.36-.37V50.34H68.46Z"/><path class="b" d="M47.68,36.55v3.27a21.83,21.83,0,0,1-2.45.39,25.67,25.67,0,0,1-2.83.13A14.93,14.93,0,0,1,38.85,40a4.6,4.6,0,0,1-2.31-1.29,5.5,5.5,0,0,1-1.26-2.61,19.85,19.85,0,0,1-.39-4.34,18.57,18.57,0,0,1,.39-4.19A5.29,5.29,0,0,1,36.54,25a4.63,4.63,0,0,1,2.31-1.25,15,15,0,0,1,3.55-.35c1.09,0,2,0,2.83.11a19.88,19.88,0,0,1,2.45.41v3.38l-.08.05A19.23,19.23,0,0,0,45.49,27,21.84,21.84,0,0,0,43,26.88,9.59,9.59,0,0,0,41,27a2.21,2.21,0,0,0-1.21.67,2.91,2.91,0,0,0-.62,1.45,16,16,0,0,0-.16,2.58,17.86,17.86,0,0,0,.16,2.71A3.18,3.18,0,0,0,39.83,36a2.13,2.13,0,0,0,1.21.7,8.7,8.7,0,0,0,2,.19c1,0,1.8,0,2.48-.1a12.8,12.8,0,0,0,2.07-.35Z"/><path class="b" d="M65,40v.08H60.55c-.12-.42-.27-.89-.43-1.43s-.34-1.11-.54-1.72H54q-.53,1.83-1,3.15H48.59v0l5.33-16.41h5.72ZM56.73,26.62c-.18.88-.43,1.95-.76,3.22s-.68,2.56-1,3.87h3.72c-.38-1.31-.74-2.61-1.07-3.87s-.58-2.34-.75-3.22Z"/><path class="b" d="M71,40.11H66.79V23.65h7.85A6.28,6.28,0,0,1,79.15,25a5.53,5.53,0,0,1,1.42,4.1,5.85,5.85,0,0,1-1,3.47,4.34,4.34,0,0,1-2.67,1.81l0,.07a6.64,6.64,0,0,1,1.43,1.38c.52.64,1,1.34,1.55,2.09s1,1.46,1.36,2.12v0H76.36L73.55,36a7.58,7.58,0,0,0-.59-.78.91.91,0,0,0-.52-.29,6.84,6.84,0,0,0-1-.05H71ZM74,27H71v4.42h3a2.48,2.48,0,0,0,1.81-.52,2.34,2.34,0,0,0,.51-1.69,2.36,2.36,0,0,0-.51-1.69A2.48,2.48,0,0,0,74,27Z"/><path class="b" d="M83.56,40.11V23.65h7.2a15.9,15.9,0,0,1,3.61.35,4.88,4.88,0,0,1,2.34,1.24A5.16,5.16,0,0,1,98,27.69a17.31,17.31,0,0,1,.39,4A18.7,18.7,0,0,1,98,36a5.39,5.39,0,0,1-1.28,2.55,4.82,4.82,0,0,1-2.34,1.26,15.9,15.9,0,0,1-3.61.35Zm6.6-12.95H87.72V36.6h2.44a6.63,6.63,0,0,0,2.38-.34,2.14,2.14,0,0,0,1.25-1.38,9.86,9.86,0,0,0,.37-3.14,8.85,8.85,0,0,0-.37-3,2.08,2.08,0,0,0-1.25-1.29A7.49,7.49,0,0,0,90.16,27.16Z"/><path class="b" d="M112.94,36.57v3.54H101V23.65h4.16V36.57Z"/><path class="b" d="M129.84,40v.08h-4.42c-.12-.42-.27-.89-.43-1.43s-.34-1.11-.53-1.72h-5.62q-.53,1.83-1,3.15h-4.42v0l5.33-16.41h5.72ZM121.6,26.62c-.18.88-.43,1.95-.76,3.22s-.68,2.56-1,3.87h3.72c-.38-1.31-.74-2.61-1.07-3.87s-.58-2.34-.75-3.22Z"/><path class="b" d="M145.59,35.9A3.87,3.87,0,0,1,144.31,39c-.86.71-2.37,1.07-4.54,1.07h-8.11V23.65h7.85a9.74,9.74,0,0,1,3.37.46,3.1,3.1,0,0,1,1.7,1.34,4.44,4.44,0,0,1,.49,2.21,4.17,4.17,0,0,1-.87,2.82,4.84,4.84,0,0,1-3.26,1.21v.07a8.65,8.65,0,0,1,2.78.59,2.78,2.78,0,0,1,1.44,1.31A5,5,0,0,1,145.59,35.9Zm-7.23-9h-2.54v3.22h2.54a4,4,0,0,0,1.85-.32,1.36,1.36,0,0,0,.57-1.29,1.35,1.35,0,0,0-.57-1.27A3.75,3.75,0,0,0,138.36,26.93Zm.52,6.63h-3.06v3.3h3.06a3.73,3.73,0,0,0,1.85-.35,1.42,1.42,0,0,0,.57-1.31,1.4,1.4,0,0,0-.57-1.32A4,4,0,0,0,138.88,33.56Z"/></svg>